<svg xmlns="http://www.w3.org/2000/svg" width="257.25" height="35" viewBox="0 0 257.25 35"><rect class="svg__rect" x="0" y="0" width="117.03" height="35" fill="#79DEE9"/><rect class="svg__rect" x="115.03" y="0" width="142.22" height="35" fill="#CDD0D2"/><path class="svg__text" d="M17.33 22L14.22 22L14.22 13.47L17.14 13.47Q18.59 13.47 19.34 14.05Q20.10 14.63 20.10 15.78L20.10 15.78Q20.10 16.36 19.78 16.83Q19.47 17.30 18.86 17.56L18.86 17.56Q19.55 17.75 19.93 18.26Q20.31 18.78 20.31 19.51L20.31 19.51Q20.31 20.71 19.53 21.36Q18.76 22 17.33 22L17.33 22ZM15.70 18.15L15.70 20.82L17.35 20.82Q18.04 20.82 18.44 20.47Q18.83 20.13 18.83 19.51L18.83 19.51Q18.83 18.18 17.47 18.15L17.47 18.15L15.70 18.15ZM15.70 14.66L15.70 17.06L17.15 17.06Q17.84 17.06 18.23 16.75Q18.62 16.43 18.62 15.86L18.62 15.86Q18.62 15.23 18.26 14.95Q17.90 14.66 17.14 14.66L17.14 14.66L15.70 14.66ZM24.64 19.16L24.64 19.16L24.64 13.47L26.12 13.47L26.12 19.18Q26.12 20.03 26.55 20.48Q26.98 20.93 27.83 20.93L27.83 20.93Q29.54 20.93 29.54 19.13L29.54 19.13L29.54 13.47L31.02 13.47L31.02 19.17Q31.02 20.53 30.15 21.32Q29.28 22.12 27.83 22.12L27.83 22.12Q26.36 22.12 25.50 21.33Q24.64 20.55 24.64 19.16ZM37.15 22L35.67 22L35.67 13.47L37.15 13.47L37.15 22ZM47.32 22L41.96 22L41.96 13.47L43.44 13.47L43.44 20.82L47.32 20.82L47.32 22ZM53.12 14.66L50.49 14.66L50.49 13.47L57.25 13.47L57.25 14.66L54.59 14.66L54.59 22L53.12 22L53.12 14.66ZM68.37 22L66.40 13.47L67.87 13.47L69.20 19.88L70.82 13.47L72.07 13.47L73.68 19.89L74.99 13.47L76.46 13.47L74.49 22L73.07 22L71.45 15.77L69.79 22L68.37 22ZM82.10 22L80.62 22L80.62 13.47L82.10 13.47L82.10 22ZM88.59 14.66L85.95 14.66L85.95 13.47L92.72 13.47L92.72 14.66L90.06 14.66L90.06 22L88.59 22L88.59 14.66ZM97.96 22L96.48 22L96.48 13.47L97.96 13.47L97.96 17.02L101.77 17.02L101.77 13.47L103.25 13.47L103.25 22L101.77 22L101.77 18.21L97.96 18.21L97.96 22Z" fill="#FFFFFF"/><path class="svg__text" d="M131.60 22L129.22 22L129.22 13.60L133.06 13.60Q134.20 13.60 135.04 13.98Q135.88 14.35 136.34 15.06Q136.79 15.76 136.79 16.71L136.79 16.71Q136.79 17.66 136.34 18.35Q135.88 19.05 135.04 19.42Q134.20 19.80 133.06 19.80L133.06 19.80L131.60 19.80L131.60 22ZM131.60 15.47L131.60 17.93L132.92 17.93Q133.65 17.93 134.02 17.61Q134.39 17.29 134.39 16.71L134.39 16.71Q134.39 16.12 134.02 15.80Q133.65 15.47 132.92 15.47L132.92 15.47L131.60 15.47ZM141.12 17.80L141.12 17.80Q141.12 16.55 141.72 15.55Q142.33 14.56 143.39 14.00Q144.45 13.43 145.78 13.43L145.78 13.43Q147.11 13.43 148.18 14.00Q149.24 14.56 149.85 15.55Q150.45 16.55 150.45 17.80L150.45 17.80Q150.45 19.05 149.85 20.04Q149.24 21.04 148.18 21.60Q147.12 22.17 145.78 22.17L145.78 22.17Q144.45 22.17 143.39 21.60Q142.33 21.04 141.72 20.04Q141.12 19.05 141.12 17.80ZM143.51 17.80L143.51 17.80Q143.51 18.51 143.82 19.05Q144.12 19.60 144.63 19.90Q145.15 20.20 145.78 20.20L145.78 20.20Q146.42 20.20 146.94 19.90Q147.45 19.60 147.75 19.05Q148.05 18.51 148.05 17.80L148.05 17.80Q148.05 17.09 147.75 16.54Q147.45 16 146.94 15.70Q146.42 15.40 145.78 15.40L145.78 15.40Q145.14 15.40 144.63 15.70Q144.12 16 143.82 16.54Q143.51 17.09 143.51 17.80ZM154.59 21.24L154.59 21.24L155.37 19.49Q155.94 19.86 156.68 20.09Q157.42 20.32 158.15 20.32L158.15 20.32Q159.51 20.32 159.52 19.64L159.52 19.64Q159.52 19.28 159.13 19.11Q158.74 18.93 157.87 18.74L157.87 18.74Q156.92 18.53 156.29 18.30Q155.65 18.06 155.20 17.55Q154.74 17.03 154.74 16.16L154.74 16.16Q154.74 15.39 155.16 14.77Q155.58 14.15 156.41 13.79Q157.25 13.43 158.46 13.43L158.46 13.43Q159.28 13.43 160.09 13.62Q160.89 13.80 161.51 14.17L161.51 14.17L160.78 15.93Q159.58 15.28 158.44 15.28L158.44 15.28Q157.74 15.28 157.41 15.49Q157.09 15.70 157.09 16.04L157.09 16.04Q157.09 16.37 157.47 16.54Q157.86 16.71 158.71 16.89L158.71 16.89Q159.67 17.10 160.30 17.33Q160.93 17.56 161.39 18.07Q161.85 18.58 161.85 19.46L161.85 19.46Q161.85 20.21 161.44 20.83Q161.02 21.44 160.18 21.80Q159.34 22.17 158.13 22.17L158.13 22.17Q157.11 22.17 156.15 21.92Q155.19 21.67 154.59 21.24ZM168.22 15.48L165.64 15.48L165.64 13.60L173.16 13.60L173.16 15.48L170.60 15.48L170.60 22L168.22 22L168.22 15.48ZM177.11 17.80L177.11 17.80Q177.11 16.54 177.70 15.54Q178.30 14.55 179.37 13.99Q180.44 13.43 181.78 13.43L181.78 13.43Q182.96 13.43 183.90 13.83Q184.84 14.22 185.46 14.97L185.46 14.97L183.94 16.33Q183.10 15.40 181.92 15.40L181.92 15.40Q181.91 15.40 181.91 15.40L181.91 15.40Q180.83 15.40 180.17 16.06Q179.50 16.71 179.50 17.80L179.50 17.80Q179.50 18.50 179.80 19.04Q180.11 19.59 180.65 19.89Q181.18 20.20 181.88 20.20L181.88 20.20Q182.57 20.20 183.17 19.93L183.17 19.93L183.17 17.62L185.26 17.62L185.26 21.10Q184.54 21.61 183.61 21.89Q182.67 22.17 181.74 22.17L181.74 22.17Q180.42 22.17 179.36 21.61Q178.30 21.05 177.70 20.05Q177.11 19.06 177.11 17.80ZM192.63 22L190.25 22L190.25 13.60L194.10 13.60Q195.24 13.60 196.08 13.98Q196.92 14.35 197.37 15.06Q197.83 15.76 197.83 16.71L197.83 16.71Q197.83 17.62 197.40 18.30Q196.98 18.98 196.18 19.36L196.18 19.36L198.00 22L195.45 22L193.93 19.77L192.63 19.77L192.63 22ZM192.63 15.47L192.63 17.93L193.95 17.93Q194.68 17.93 195.06 17.61Q195.43 17.29 195.43 16.71L195.43 16.71Q195.43 16.12 195.06 15.79Q194.68 15.47 193.95 15.47L193.95 15.47L192.63 15.47ZM209.36 22L202.62 22L202.62 13.60L209.21 13.60L209.21 15.44L204.97 15.44L204.97 16.85L208.71 16.85L208.71 18.63L204.97 18.63L204.97 20.17L209.36 20.17L209.36 22ZM213.58 21.24L213.58 21.24L214.36 19.49Q214.92 19.86 215.67 20.09Q216.41 20.32 217.13 20.32L217.13 20.32Q218.50 20.32 218.50 19.64L218.50 19.64Q218.50 19.28 218.11 19.11Q217.72 18.93 216.86 18.74L216.86 18.74Q215.91 18.53 215.27 18.30Q214.64 18.06 214.18 17.55Q213.73 17.03 213.73 16.16L213.73 16.16Q213.73 15.39 214.15 14.77Q214.57 14.15 215.40 13.79Q216.24 13.43 217.44 13.43L217.44 13.43Q218.27 13.43 219.07 13.62Q219.88 13.80 220.50 14.17L220.50 14.17L219.76 15.93Q218.56 15.28 217.43 15.28L217.43 15.28Q216.72 15.28 216.40 15.49Q216.08 15.70 216.08 16.04L216.08 16.04Q216.08 16.37 216.46 16.54Q216.84 16.71 217.69 16.89L217.69 16.89Q218.66 17.10 219.29 17.33Q219.92 17.56 220.38 18.07Q220.84 18.58 220.84 19.46L220.84 19.46Q220.84 20.21 220.42 20.83Q220.00 21.44 219.16 21.80Q218.32 22.17 217.12 22.17L217.12 22.17Q216.10 22.17 215.14 21.92Q214.18 21.67 213.58 21.24ZM224.99 17.80L224.99 17.80Q224.99 16.55 225.59 15.55Q226.20 14.56 227.26 14.00Q228.32 13.43 229.65 13.43L229.65 13.43Q230.98 13.43 232.05 14.00Q233.11 14.56 233.72 15.55Q234.32 16.55 234.32 17.80L234.32 17.80Q234.32 19.22 233.55 20.30Q232.78 21.39 231.47 21.85L231.47 21.85Q231.71 22.12 231.94 22.23Q232.17 22.33 232.45 22.33L232.45 22.33Q233.16 22.33 233.73 21.75L233.73 21.75L234.76 22.97Q234.34 23.49 233.73 23.76Q233.12 24.03 232.40 24.03L232.40 24.03Q231.70 24.03 231.14 23.85Q230.58 23.67 230.01 23.25Q229.44 22.84 228.73 22.09L228.73 22.09Q227.64 21.91 226.79 21.31Q225.93 20.72 225.46 19.81Q224.99 18.89 224.99 17.80ZM227.39 17.80L227.39 17.80Q227.39 18.51 227.69 19.05Q227.99 19.60 228.50 19.90Q229.02 20.20 229.65 20.20L229.65 20.20Q230.29 20.20 230.81 19.90Q231.32 19.60 231.62 19.05Q231.92 18.51 231.92 17.80L231.92 17.80Q231.92 17.09 231.62 16.54Q231.32 16 230.81 15.70Q230.29 15.40 229.65 15.40L229.65 15.40Q229.01 15.40 228.50 15.70Q227.99 16 227.69 16.54Q227.39 17.09 227.39 17.80ZM245.44 22L239.05 22L239.05 13.60L241.43 13.60L241.43 20.11L245.44 20.11L245.44 22Z" fill="#000000" x="128.03"/></svg>